<mxfile host="app.diagrams.net" agent="Mozilla/5.0 (Windows NT 10.0; Win64; x64; rv:132.0) Gecko/20100101 Firefox/132.0" version="24.8.4">
  <diagram name="Page-1" id="XyuqZOyodD7Cldqc2I-q">
    <mxGraphModel dx="1434" dy="773" grid="1" gridSize="10" guides="1" tooltips="1" connect="1" arrows="1" fold="1" page="1" pageScale="1" pageWidth="1400" pageHeight="850" math="0" shadow="0">
      <root>
        <mxCell id="0" />
        <mxCell id="1" parent="0" />
        <mxCell id="7s9A2ZnNG_jbPzaEZ-DY-1" value="AREA" style="rounded=1;whiteSpace=wrap;html=1;" vertex="1" parent="1">
          <mxGeometry x="295" y="570" width="120" height="60" as="geometry" />
        </mxCell>
        <mxCell id="7s9A2ZnNG_jbPzaEZ-DY-2" value="" style="ellipse;whiteSpace=wrap;html=1;aspect=fixed;fillColor=#050505;" vertex="1" parent="1">
          <mxGeometry x="255" y="565" width="20" height="20" as="geometry" />
        </mxCell>
        <mxCell id="7s9A2ZnNG_jbPzaEZ-DY-3" value="NOMBRE_AREA" style="text;html=1;align=right;verticalAlign=middle;resizable=0;points=[];autosize=1;strokeColor=none;fillColor=none;" vertex="1" parent="1">
          <mxGeometry x="145" y="560" width="110" height="30" as="geometry" />
        </mxCell>
        <mxCell id="7s9A2ZnNG_jbPzaEZ-DY-10" style="edgeStyle=orthogonalEdgeStyle;shape=connector;curved=1;rounded=0;orthogonalLoop=1;jettySize=auto;html=1;entryX=0;entryY=0.5;entryDx=0;entryDy=0;strokeColor=default;align=center;verticalAlign=middle;fontFamily=Helvetica;fontSize=11;fontColor=default;labelBackgroundColor=default;endArrow=none;endFill=0;" edge="1" parent="1" source="7s9A2ZnNG_jbPzaEZ-DY-4" target="7s9A2ZnNG_jbPzaEZ-DY-1">
          <mxGeometry relative="1" as="geometry" />
        </mxCell>
        <mxCell id="7s9A2ZnNG_jbPzaEZ-DY-4" value="" style="ellipse;whiteSpace=wrap;html=1;aspect=fixed;fillColor=#000000;" vertex="1" parent="1">
          <mxGeometry x="255" y="590" width="20" height="20" as="geometry" />
        </mxCell>
        <mxCell id="7s9A2ZnNG_jbPzaEZ-DY-5" value="CODIGO_AREA" style="text;html=1;align=right;verticalAlign=middle;resizable=0;points=[];autosize=1;strokeColor=none;fillColor=none;" vertex="1" parent="1">
          <mxGeometry x="145" y="585" width="110" height="30" as="geometry" />
        </mxCell>
        <mxCell id="7s9A2ZnNG_jbPzaEZ-DY-6" value="" style="ellipse;whiteSpace=wrap;html=1;aspect=fixed;" vertex="1" parent="1">
          <mxGeometry x="255" y="615" width="20" height="20" as="geometry" />
        </mxCell>
        <mxCell id="7s9A2ZnNG_jbPzaEZ-DY-7" value="DESCRIPCION" style="text;html=1;align=right;verticalAlign=middle;resizable=0;points=[];autosize=1;strokeColor=none;fillColor=none;" vertex="1" parent="1">
          <mxGeometry x="145" y="610" width="110" height="30" as="geometry" />
        </mxCell>
        <mxCell id="7s9A2ZnNG_jbPzaEZ-DY-8" style="edgeStyle=orthogonalEdgeStyle;rounded=0;orthogonalLoop=1;jettySize=auto;html=1;entryX=-0.005;entryY=0.156;entryDx=0;entryDy=0;entryPerimeter=0;endArrow=none;endFill=0;curved=1;" edge="1" parent="1" source="7s9A2ZnNG_jbPzaEZ-DY-2" target="7s9A2ZnNG_jbPzaEZ-DY-1">
          <mxGeometry relative="1" as="geometry" />
        </mxCell>
        <mxCell id="7s9A2ZnNG_jbPzaEZ-DY-11" style="edgeStyle=orthogonalEdgeStyle;shape=connector;curved=1;rounded=0;orthogonalLoop=1;jettySize=auto;html=1;entryX=-0.007;entryY=0.834;entryDx=0;entryDy=0;entryPerimeter=0;strokeColor=default;align=center;verticalAlign=middle;fontFamily=Helvetica;fontSize=11;fontColor=default;labelBackgroundColor=default;endArrow=none;endFill=0;" edge="1" parent="1" source="7s9A2ZnNG_jbPzaEZ-DY-6" target="7s9A2ZnNG_jbPzaEZ-DY-1">
          <mxGeometry relative="1" as="geometry" />
        </mxCell>
        <mxCell id="7s9A2ZnNG_jbPzaEZ-DY-72" style="edgeStyle=orthogonalEdgeStyle;shape=connector;curved=1;rounded=0;orthogonalLoop=1;jettySize=auto;html=1;entryX=0;entryY=0.5;entryDx=0;entryDy=0;strokeColor=default;align=center;verticalAlign=middle;fontFamily=Helvetica;fontSize=11;fontColor=default;labelBackgroundColor=default;endArrow=none;endFill=0;" edge="1" parent="1" source="7s9A2ZnNG_jbPzaEZ-DY-14" target="7s9A2ZnNG_jbPzaEZ-DY-70">
          <mxGeometry relative="1" as="geometry" />
        </mxCell>
        <mxCell id="7s9A2ZnNG_jbPzaEZ-DY-76" value="" style="edgeStyle=orthogonalEdgeStyle;shape=connector;curved=1;rounded=0;orthogonalLoop=1;jettySize=auto;html=1;strokeColor=default;align=center;verticalAlign=middle;fontFamily=Helvetica;fontSize=11;fontColor=default;labelBackgroundColor=default;endArrow=none;endFill=0;" edge="1" parent="1" source="7s9A2ZnNG_jbPzaEZ-DY-14" target="7s9A2ZnNG_jbPzaEZ-DY-75">
          <mxGeometry relative="1" as="geometry" />
        </mxCell>
        <mxCell id="7s9A2ZnNG_jbPzaEZ-DY-14" value="EMPLEADO" style="rounded=1;whiteSpace=wrap;html=1;" vertex="1" parent="1">
          <mxGeometry x="385" y="200" width="120" height="60" as="geometry" />
        </mxCell>
        <mxCell id="7s9A2ZnNG_jbPzaEZ-DY-16" value="" style="ellipse;whiteSpace=wrap;html=1;aspect=fixed;fillColor=#050505;" vertex="1" parent="1">
          <mxGeometry x="335" y="145" width="20" height="20" as="geometry" />
        </mxCell>
        <mxCell id="7s9A2ZnNG_jbPzaEZ-DY-17" value="DNI" style="text;html=1;align=right;verticalAlign=middle;resizable=0;points=[];autosize=1;strokeColor=none;fillColor=none;" vertex="1" parent="1">
          <mxGeometry x="295" y="140" width="40" height="30" as="geometry" />
        </mxCell>
        <mxCell id="7s9A2ZnNG_jbPzaEZ-DY-18" value="" style="ellipse;whiteSpace=wrap;html=1;aspect=fixed;fillColor=#000000;" vertex="1" parent="1">
          <mxGeometry x="335" y="170" width="20" height="20" as="geometry" />
        </mxCell>
        <mxCell id="7s9A2ZnNG_jbPzaEZ-DY-19" value="CUIL" style="text;html=1;align=right;verticalAlign=middle;resizable=0;points=[];autosize=1;strokeColor=none;fillColor=none;" vertex="1" parent="1">
          <mxGeometry x="285" y="165" width="50" height="30" as="geometry" />
        </mxCell>
        <mxCell id="7s9A2ZnNG_jbPzaEZ-DY-20" value="" style="ellipse;whiteSpace=wrap;html=1;aspect=fixed;" vertex="1" parent="1">
          <mxGeometry x="335" y="195" width="20" height="20" as="geometry" />
        </mxCell>
        <mxCell id="7s9A2ZnNG_jbPzaEZ-DY-21" value="FECHA_NACIMIENTO" style="text;html=1;align=right;verticalAlign=middle;resizable=0;points=[];autosize=1;strokeColor=none;fillColor=none;" vertex="1" parent="1">
          <mxGeometry x="195" y="190" width="140" height="30" as="geometry" />
        </mxCell>
        <mxCell id="7s9A2ZnNG_jbPzaEZ-DY-53" style="edgeStyle=orthogonalEdgeStyle;shape=connector;curved=1;rounded=0;orthogonalLoop=1;jettySize=auto;html=1;entryX=0;entryY=0.5;entryDx=0;entryDy=0;strokeColor=default;align=center;verticalAlign=middle;fontFamily=Helvetica;fontSize=11;fontColor=default;labelBackgroundColor=default;endArrow=none;endFill=0;" edge="1" parent="1" source="7s9A2ZnNG_jbPzaEZ-DY-22" target="7s9A2ZnNG_jbPzaEZ-DY-14">
          <mxGeometry relative="1" as="geometry" />
        </mxCell>
        <mxCell id="7s9A2ZnNG_jbPzaEZ-DY-22" value="" style="ellipse;whiteSpace=wrap;html=1;aspect=fixed;" vertex="1" parent="1">
          <mxGeometry x="335" y="220" width="20" height="20" as="geometry" />
        </mxCell>
        <mxCell id="7s9A2ZnNG_jbPzaEZ-DY-23" value="CANTIDAD_HIJOS" style="text;html=1;align=right;verticalAlign=middle;resizable=0;points=[];autosize=1;strokeColor=none;fillColor=none;" vertex="1" parent="1">
          <mxGeometry x="205" y="215" width="130" height="30" as="geometry" />
        </mxCell>
        <mxCell id="7s9A2ZnNG_jbPzaEZ-DY-54" style="edgeStyle=orthogonalEdgeStyle;shape=connector;curved=1;rounded=0;orthogonalLoop=1;jettySize=auto;html=1;entryX=0;entryY=0.75;entryDx=0;entryDy=0;strokeColor=default;align=center;verticalAlign=middle;fontFamily=Helvetica;fontSize=11;fontColor=default;labelBackgroundColor=default;endArrow=none;endFill=0;" edge="1" parent="1" source="7s9A2ZnNG_jbPzaEZ-DY-28" target="7s9A2ZnNG_jbPzaEZ-DY-14">
          <mxGeometry relative="1" as="geometry" />
        </mxCell>
        <mxCell id="7s9A2ZnNG_jbPzaEZ-DY-28" value="" style="ellipse;whiteSpace=wrap;html=1;aspect=fixed;" vertex="1" parent="1">
          <mxGeometry x="335" y="245" width="20" height="20" as="geometry" />
        </mxCell>
        <mxCell id="7s9A2ZnNG_jbPzaEZ-DY-29" value="FECHA_INGRESO" style="text;html=1;align=right;verticalAlign=middle;resizable=0;points=[];autosize=1;strokeColor=none;fillColor=none;" vertex="1" parent="1">
          <mxGeometry x="205" y="240" width="130" height="30" as="geometry" />
        </mxCell>
        <mxCell id="7s9A2ZnNG_jbPzaEZ-DY-30" value="" style="ellipse;whiteSpace=wrap;html=1;aspect=fixed;" vertex="1" parent="1">
          <mxGeometry x="335" y="270" width="20" height="20" as="geometry" />
        </mxCell>
        <mxCell id="7s9A2ZnNG_jbPzaEZ-DY-31" value="DESCRIPCION_TITULOS(0,1)" style="text;html=1;align=right;verticalAlign=middle;resizable=0;points=[];autosize=1;strokeColor=none;fillColor=none;" vertex="1" parent="1">
          <mxGeometry x="145" y="265" width="190" height="30" as="geometry" />
        </mxCell>
        <mxCell id="7s9A2ZnNG_jbPzaEZ-DY-32" value="" style="ellipse;whiteSpace=wrap;html=1;aspect=fixed;" vertex="1" parent="1">
          <mxGeometry x="335" y="295" width="20" height="20" as="geometry" />
        </mxCell>
        <mxCell id="7s9A2ZnNG_jbPzaEZ-DY-33" value="TELEFONO(1,N)" style="text;html=1;align=right;verticalAlign=middle;resizable=0;points=[];autosize=1;strokeColor=none;fillColor=none;" vertex="1" parent="1">
          <mxGeometry x="225" y="290" width="110" height="30" as="geometry" />
        </mxCell>
        <mxCell id="7s9A2ZnNG_jbPzaEZ-DY-63" style="edgeStyle=orthogonalEdgeStyle;shape=connector;curved=1;rounded=0;orthogonalLoop=1;jettySize=auto;html=1;entryX=1;entryY=0.25;entryDx=0;entryDy=0;strokeColor=default;align=center;verticalAlign=middle;fontFamily=Helvetica;fontSize=11;fontColor=default;labelBackgroundColor=default;endArrow=none;endFill=0;" edge="1" parent="1" source="7s9A2ZnNG_jbPzaEZ-DY-35" target="7s9A2ZnNG_jbPzaEZ-DY-14">
          <mxGeometry relative="1" as="geometry" />
        </mxCell>
        <mxCell id="7s9A2ZnNG_jbPzaEZ-DY-35" value="DIRECCION" style="ellipse;whiteSpace=wrap;html=1;fontFamily=Helvetica;fontSize=11;fontColor=default;labelBackgroundColor=default;" vertex="1" parent="1">
          <mxGeometry x="585" y="137.5" width="110" height="50" as="geometry" />
        </mxCell>
        <mxCell id="7s9A2ZnNG_jbPzaEZ-DY-48" style="edgeStyle=orthogonalEdgeStyle;shape=connector;curved=1;rounded=0;orthogonalLoop=1;jettySize=auto;html=1;entryX=1;entryY=0;entryDx=0;entryDy=0;strokeColor=default;align=center;verticalAlign=middle;fontFamily=Helvetica;fontSize=11;fontColor=default;labelBackgroundColor=default;endArrow=none;endFill=0;" edge="1" parent="1" source="7s9A2ZnNG_jbPzaEZ-DY-36" target="7s9A2ZnNG_jbPzaEZ-DY-35">
          <mxGeometry relative="1" as="geometry">
            <Array as="points">
              <mxPoint x="695" y="125.5" />
              <mxPoint x="695" y="132.5" />
              <mxPoint x="679" y="132.5" />
            </Array>
          </mxGeometry>
        </mxCell>
        <mxCell id="7s9A2ZnNG_jbPzaEZ-DY-36" value="" style="ellipse;whiteSpace=wrap;html=1;aspect=fixed;" vertex="1" parent="1">
          <mxGeometry x="715" y="115" width="20" height="20" as="geometry" />
        </mxCell>
        <mxCell id="7s9A2ZnNG_jbPzaEZ-DY-37" value="" style="ellipse;whiteSpace=wrap;html=1;aspect=fixed;" vertex="1" parent="1">
          <mxGeometry x="715" y="140" width="20" height="20" as="geometry" />
        </mxCell>
        <mxCell id="7s9A2ZnNG_jbPzaEZ-DY-38" value="" style="ellipse;whiteSpace=wrap;html=1;aspect=fixed;" vertex="1" parent="1">
          <mxGeometry x="715" y="165" width="20" height="20" as="geometry" />
        </mxCell>
        <mxCell id="7s9A2ZnNG_jbPzaEZ-DY-39" value="CALLE 1" style="text;html=1;align=left;verticalAlign=middle;resizable=0;points=[];autosize=1;strokeColor=none;fillColor=none;" vertex="1" parent="1">
          <mxGeometry x="735" y="110" width="70" height="30" as="geometry" />
        </mxCell>
        <mxCell id="7s9A2ZnNG_jbPzaEZ-DY-40" value="CALLE 1" style="text;html=1;align=left;verticalAlign=middle;resizable=0;points=[];autosize=1;strokeColor=none;fillColor=none;" vertex="1" parent="1">
          <mxGeometry x="735" y="110" width="70" height="30" as="geometry" />
        </mxCell>
        <mxCell id="7s9A2ZnNG_jbPzaEZ-DY-41" value="CALLE 2" style="text;html=1;align=left;verticalAlign=middle;resizable=0;points=[];autosize=1;strokeColor=none;fillColor=none;" vertex="1" parent="1">
          <mxGeometry x="735" y="135" width="70" height="30" as="geometry" />
        </mxCell>
        <mxCell id="7s9A2ZnNG_jbPzaEZ-DY-42" value="NUMERO" style="text;html=1;align=left;verticalAlign=middle;resizable=0;points=[];autosize=1;strokeColor=none;fillColor=none;" vertex="1" parent="1">
          <mxGeometry x="735" y="160" width="80" height="30" as="geometry" />
        </mxCell>
        <mxCell id="7s9A2ZnNG_jbPzaEZ-DY-43" value="PISO" style="text;html=1;align=left;verticalAlign=middle;resizable=0;points=[];autosize=1;strokeColor=none;fillColor=none;" vertex="1" parent="1">
          <mxGeometry x="735" y="185" width="50" height="30" as="geometry" />
        </mxCell>
        <mxCell id="7s9A2ZnNG_jbPzaEZ-DY-45" style="edgeStyle=orthogonalEdgeStyle;shape=connector;curved=1;rounded=0;orthogonalLoop=1;jettySize=auto;html=1;entryX=1;entryY=1;entryDx=0;entryDy=0;strokeColor=default;align=center;verticalAlign=middle;fontFamily=Helvetica;fontSize=11;fontColor=default;labelBackgroundColor=default;endArrow=none;endFill=0;" edge="1" parent="1" source="7s9A2ZnNG_jbPzaEZ-DY-44" target="7s9A2ZnNG_jbPzaEZ-DY-35">
          <mxGeometry relative="1" as="geometry">
            <Array as="points">
              <mxPoint x="695" y="200.5" />
              <mxPoint x="695" y="192.5" />
              <mxPoint x="679" y="192.5" />
            </Array>
          </mxGeometry>
        </mxCell>
        <mxCell id="7s9A2ZnNG_jbPzaEZ-DY-44" value="" style="ellipse;whiteSpace=wrap;html=1;aspect=fixed;" vertex="1" parent="1">
          <mxGeometry x="715" y="190" width="20" height="20" as="geometry" />
        </mxCell>
        <mxCell id="7s9A2ZnNG_jbPzaEZ-DY-46" style="edgeStyle=orthogonalEdgeStyle;shape=connector;curved=1;rounded=0;orthogonalLoop=1;jettySize=auto;html=1;entryX=0.968;entryY=0.72;entryDx=0;entryDy=0;entryPerimeter=0;strokeColor=default;align=center;verticalAlign=middle;fontFamily=Helvetica;fontSize=11;fontColor=default;labelBackgroundColor=default;endArrow=none;endFill=0;" edge="1" parent="1" source="7s9A2ZnNG_jbPzaEZ-DY-38" target="7s9A2ZnNG_jbPzaEZ-DY-35">
          <mxGeometry relative="1" as="geometry" />
        </mxCell>
        <mxCell id="7s9A2ZnNG_jbPzaEZ-DY-47" style="edgeStyle=orthogonalEdgeStyle;shape=connector;curved=1;rounded=0;orthogonalLoop=1;jettySize=auto;html=1;entryX=0.982;entryY=0.34;entryDx=0;entryDy=0;entryPerimeter=0;strokeColor=default;align=center;verticalAlign=middle;fontFamily=Helvetica;fontSize=11;fontColor=default;labelBackgroundColor=default;endArrow=none;endFill=0;" edge="1" parent="1" source="7s9A2ZnNG_jbPzaEZ-DY-37" target="7s9A2ZnNG_jbPzaEZ-DY-35">
          <mxGeometry relative="1" as="geometry" />
        </mxCell>
        <mxCell id="7s9A2ZnNG_jbPzaEZ-DY-50" style="edgeStyle=orthogonalEdgeStyle;shape=connector;curved=1;rounded=0;orthogonalLoop=1;jettySize=auto;html=1;entryX=0.222;entryY=0.057;entryDx=0;entryDy=0;entryPerimeter=0;strokeColor=default;align=center;verticalAlign=middle;fontFamily=Helvetica;fontSize=11;fontColor=default;labelBackgroundColor=default;endArrow=none;endFill=0;" edge="1" parent="1" source="7s9A2ZnNG_jbPzaEZ-DY-16" target="7s9A2ZnNG_jbPzaEZ-DY-14">
          <mxGeometry relative="1" as="geometry" />
        </mxCell>
        <mxCell id="7s9A2ZnNG_jbPzaEZ-DY-51" style="edgeStyle=orthogonalEdgeStyle;shape=connector;curved=1;rounded=0;orthogonalLoop=1;jettySize=auto;html=1;entryX=0.1;entryY=-0.006;entryDx=0;entryDy=0;entryPerimeter=0;strokeColor=default;align=center;verticalAlign=middle;fontFamily=Helvetica;fontSize=11;fontColor=default;labelBackgroundColor=default;endArrow=none;endFill=0;" edge="1" parent="1" source="7s9A2ZnNG_jbPzaEZ-DY-18" target="7s9A2ZnNG_jbPzaEZ-DY-14">
          <mxGeometry relative="1" as="geometry" />
        </mxCell>
        <mxCell id="7s9A2ZnNG_jbPzaEZ-DY-52" style="edgeStyle=orthogonalEdgeStyle;shape=connector;curved=1;rounded=0;orthogonalLoop=1;jettySize=auto;html=1;entryX=0.01;entryY=0.085;entryDx=0;entryDy=0;entryPerimeter=0;strokeColor=default;align=center;verticalAlign=middle;fontFamily=Helvetica;fontSize=11;fontColor=default;labelBackgroundColor=default;endArrow=none;endFill=0;" edge="1" parent="1" source="7s9A2ZnNG_jbPzaEZ-DY-20" target="7s9A2ZnNG_jbPzaEZ-DY-14">
          <mxGeometry relative="1" as="geometry" />
        </mxCell>
        <mxCell id="7s9A2ZnNG_jbPzaEZ-DY-55" style="edgeStyle=orthogonalEdgeStyle;shape=connector;curved=1;rounded=0;orthogonalLoop=1;jettySize=auto;html=1;entryX=0.024;entryY=0.994;entryDx=0;entryDy=0;entryPerimeter=0;strokeColor=default;align=center;verticalAlign=middle;fontFamily=Helvetica;fontSize=11;fontColor=default;labelBackgroundColor=default;endArrow=none;endFill=0;" edge="1" parent="1" source="7s9A2ZnNG_jbPzaEZ-DY-30" target="7s9A2ZnNG_jbPzaEZ-DY-14">
          <mxGeometry relative="1" as="geometry" />
        </mxCell>
        <mxCell id="7s9A2ZnNG_jbPzaEZ-DY-56" style="edgeStyle=orthogonalEdgeStyle;shape=connector;curved=1;rounded=0;orthogonalLoop=1;jettySize=auto;html=1;entryX=0.11;entryY=1.029;entryDx=0;entryDy=0;entryPerimeter=0;strokeColor=default;align=center;verticalAlign=middle;fontFamily=Helvetica;fontSize=11;fontColor=default;labelBackgroundColor=default;endArrow=none;endFill=0;" edge="1" parent="1" source="7s9A2ZnNG_jbPzaEZ-DY-32" target="7s9A2ZnNG_jbPzaEZ-DY-14">
          <mxGeometry relative="1" as="geometry" />
        </mxCell>
        <mxCell id="7s9A2ZnNG_jbPzaEZ-DY-68" style="edgeStyle=orthogonalEdgeStyle;shape=connector;curved=1;rounded=0;orthogonalLoop=1;jettySize=auto;html=1;entryX=0;entryY=0.5;entryDx=0;entryDy=0;strokeColor=default;align=center;verticalAlign=middle;fontFamily=Helvetica;fontSize=11;fontColor=default;labelBackgroundColor=default;endArrow=none;endFill=0;" edge="1" parent="1" source="7s9A2ZnNG_jbPzaEZ-DY-64" target="7s9A2ZnNG_jbPzaEZ-DY-66">
          <mxGeometry relative="1" as="geometry" />
        </mxCell>
        <mxCell id="7s9A2ZnNG_jbPzaEZ-DY-64" value="CATEGORIA" style="rounded=1;whiteSpace=wrap;html=1;" vertex="1" parent="1">
          <mxGeometry x="735" y="250" width="120" height="60" as="geometry" />
        </mxCell>
        <mxCell id="7s9A2ZnNG_jbPzaEZ-DY-66" value="" style="ellipse;whiteSpace=wrap;html=1;aspect=fixed;fillColor=#050505;" vertex="1" parent="1">
          <mxGeometry x="875" y="270" width="20" height="20" as="geometry" />
        </mxCell>
        <mxCell id="7s9A2ZnNG_jbPzaEZ-DY-69" value="NOMBRE_CATEGORIA" style="text;html=1;align=left;verticalAlign=middle;resizable=0;points=[];autosize=1;strokeColor=none;fillColor=none;" vertex="1" parent="1">
          <mxGeometry x="895" y="265" width="150" height="30" as="geometry" />
        </mxCell>
        <mxCell id="7s9A2ZnNG_jbPzaEZ-DY-71" value="" style="edgeStyle=orthogonalEdgeStyle;shape=connector;curved=1;rounded=0;orthogonalLoop=1;jettySize=auto;html=1;strokeColor=default;align=center;verticalAlign=middle;fontFamily=Helvetica;fontSize=11;fontColor=default;labelBackgroundColor=default;endArrow=none;endFill=0;" edge="1" parent="1" source="7s9A2ZnNG_jbPzaEZ-DY-70" target="7s9A2ZnNG_jbPzaEZ-DY-64">
          <mxGeometry relative="1" as="geometry" />
        </mxCell>
        <mxCell id="7s9A2ZnNG_jbPzaEZ-DY-70" value="PERTENECE" style="rhombus;whiteSpace=wrap;html=1;fontFamily=Helvetica;fontSize=11;fontColor=default;labelBackgroundColor=default;" vertex="1" parent="1">
          <mxGeometry x="565" y="245" width="120" height="70" as="geometry" />
        </mxCell>
        <mxCell id="7s9A2ZnNG_jbPzaEZ-DY-73" value="(1,1)" style="text;html=1;align=center;verticalAlign=middle;resizable=0;points=[];autosize=1;strokeColor=none;fillColor=none;fontFamily=Helvetica;fontSize=11;fontColor=default;labelBackgroundColor=default;" vertex="1" parent="1">
          <mxGeometry x="530" y="235" width="50" height="30" as="geometry" />
        </mxCell>
        <mxCell id="7s9A2ZnNG_jbPzaEZ-DY-74" value="(0,N)" style="text;html=1;align=center;verticalAlign=middle;resizable=0;points=[];autosize=1;strokeColor=none;fillColor=none;fontFamily=Helvetica;fontSize=11;fontColor=default;labelBackgroundColor=default;" vertex="1" parent="1">
          <mxGeometry x="685" y="250" width="50" height="30" as="geometry" />
        </mxCell>
        <mxCell id="7s9A2ZnNG_jbPzaEZ-DY-77" value="" style="edgeStyle=orthogonalEdgeStyle;shape=connector;curved=1;rounded=0;orthogonalLoop=1;jettySize=auto;html=1;strokeColor=default;align=center;verticalAlign=middle;fontFamily=Helvetica;fontSize=11;fontColor=default;labelBackgroundColor=default;endArrow=none;endFill=0;" edge="1" parent="1" source="7s9A2ZnNG_jbPzaEZ-DY-75" target="7s9A2ZnNG_jbPzaEZ-DY-1">
          <mxGeometry relative="1" as="geometry" />
        </mxCell>
        <mxCell id="7s9A2ZnNG_jbPzaEZ-DY-75" value="TRABAJA_EN" style="rhombus;whiteSpace=wrap;html=1;fontFamily=Helvetica;fontSize=11;fontColor=default;labelBackgroundColor=default;" vertex="1" parent="1">
          <mxGeometry x="295" y="360" width="120" height="70" as="geometry" />
        </mxCell>
        <mxCell id="7s9A2ZnNG_jbPzaEZ-DY-82" style="edgeStyle=orthogonalEdgeStyle;shape=connector;curved=1;rounded=0;orthogonalLoop=1;jettySize=auto;html=1;entryX=0;entryY=1;entryDx=0;entryDy=0;strokeColor=default;align=center;verticalAlign=middle;fontFamily=Helvetica;fontSize=11;fontColor=default;labelBackgroundColor=default;endArrow=none;endFill=0;" edge="1" parent="1" source="7s9A2ZnNG_jbPzaEZ-DY-78" target="7s9A2ZnNG_jbPzaEZ-DY-75">
          <mxGeometry relative="1" as="geometry">
            <Array as="points">
              <mxPoint x="325" y="425" />
            </Array>
          </mxGeometry>
        </mxCell>
        <mxCell id="7s9A2ZnNG_jbPzaEZ-DY-78" value="" style="ellipse;whiteSpace=wrap;html=1;aspect=fixed;" vertex="1" parent="1">
          <mxGeometry x="275" y="415" width="20" height="20" as="geometry" />
        </mxCell>
        <mxCell id="7s9A2ZnNG_jbPzaEZ-DY-79" value="FECHA_FIN(0,1)" style="text;html=1;align=right;verticalAlign=middle;resizable=0;points=[];autosize=1;strokeColor=none;fillColor=none;" vertex="1" parent="1">
          <mxGeometry x="165" y="410" width="110" height="30" as="geometry" />
        </mxCell>
        <mxCell id="7s9A2ZnNG_jbPzaEZ-DY-80" value="" style="ellipse;whiteSpace=wrap;html=1;aspect=fixed;" vertex="1" parent="1">
          <mxGeometry x="275" y="355" width="20" height="20" as="geometry" />
        </mxCell>
        <mxCell id="7s9A2ZnNG_jbPzaEZ-DY-81" value="FECHA_INGRESO" style="text;html=1;align=right;verticalAlign=middle;resizable=0;points=[];autosize=1;strokeColor=none;fillColor=none;" vertex="1" parent="1">
          <mxGeometry x="145" y="350" width="130" height="30" as="geometry" />
        </mxCell>
        <mxCell id="7s9A2ZnNG_jbPzaEZ-DY-83" style="edgeStyle=orthogonalEdgeStyle;shape=connector;curved=1;rounded=0;orthogonalLoop=1;jettySize=auto;html=1;entryX=0.308;entryY=0.204;entryDx=0;entryDy=0;entryPerimeter=0;strokeColor=default;align=center;verticalAlign=middle;fontFamily=Helvetica;fontSize=11;fontColor=default;labelBackgroundColor=default;endArrow=none;endFill=0;" edge="1" parent="1" source="7s9A2ZnNG_jbPzaEZ-DY-80" target="7s9A2ZnNG_jbPzaEZ-DY-75">
          <mxGeometry relative="1" as="geometry">
            <Array as="points">
              <mxPoint x="332" y="365" />
            </Array>
          </mxGeometry>
        </mxCell>
        <mxCell id="7s9A2ZnNG_jbPzaEZ-DY-84" value="(0,N)" style="text;html=1;align=center;verticalAlign=middle;resizable=0;points=[];autosize=1;strokeColor=none;fillColor=none;fontFamily=Helvetica;fontSize=11;fontColor=default;labelBackgroundColor=default;" vertex="1" parent="1">
          <mxGeometry x="395" y="310" width="50" height="30" as="geometry" />
        </mxCell>
        <mxCell id="7s9A2ZnNG_jbPzaEZ-DY-85" value="(0,N)" style="text;html=1;align=center;verticalAlign=middle;resizable=0;points=[];autosize=1;strokeColor=none;fillColor=none;fontFamily=Helvetica;fontSize=11;fontColor=default;labelBackgroundColor=default;" vertex="1" parent="1">
          <mxGeometry x="355" y="530" width="50" height="30" as="geometry" />
        </mxCell>
        <mxCell id="7s9A2ZnNG_jbPzaEZ-DY-86" value="PROYECTO" style="rounded=1;whiteSpace=wrap;html=1;" vertex="1" parent="1">
          <mxGeometry x="645" y="570" width="120" height="60" as="geometry" />
        </mxCell>
        <mxCell id="7s9A2ZnNG_jbPzaEZ-DY-87" value="" style="ellipse;whiteSpace=wrap;html=1;aspect=fixed;fillColor=#000000;" vertex="1" parent="1">
          <mxGeometry x="790" y="552.5" width="20" height="20" as="geometry" />
        </mxCell>
        <mxCell id="7s9A2ZnNG_jbPzaEZ-DY-89" value="NOMBRE_PROYECTO" style="text;html=1;align=left;verticalAlign=middle;resizable=0;points=[];autosize=1;strokeColor=none;fillColor=none;" vertex="1" parent="1">
          <mxGeometry x="810" y="547.5" width="150" height="30" as="geometry" />
        </mxCell>
        <mxCell id="7s9A2ZnNG_jbPzaEZ-DY-100" style="edgeStyle=orthogonalEdgeStyle;shape=connector;curved=1;rounded=0;orthogonalLoop=1;jettySize=auto;html=1;entryX=1;entryY=0.25;entryDx=0;entryDy=0;strokeColor=default;align=center;verticalAlign=middle;fontFamily=Helvetica;fontSize=11;fontColor=default;labelBackgroundColor=default;endArrow=none;endFill=0;" edge="1" parent="1" source="7s9A2ZnNG_jbPzaEZ-DY-91" target="7s9A2ZnNG_jbPzaEZ-DY-86">
          <mxGeometry relative="1" as="geometry" />
        </mxCell>
        <mxCell id="7s9A2ZnNG_jbPzaEZ-DY-91" value="" style="ellipse;whiteSpace=wrap;html=1;aspect=fixed;" vertex="1" parent="1">
          <mxGeometry x="790" y="577.5" width="20" height="20" as="geometry" />
        </mxCell>
        <mxCell id="7s9A2ZnNG_jbPzaEZ-DY-92" value="FECHA_COMIENZO" style="text;html=1;align=left;verticalAlign=middle;resizable=0;points=[];autosize=1;strokeColor=none;fillColor=none;" vertex="1" parent="1">
          <mxGeometry x="810" y="572.5" width="130" height="30" as="geometry" />
        </mxCell>
        <mxCell id="7s9A2ZnNG_jbPzaEZ-DY-93" value="" style="ellipse;whiteSpace=wrap;html=1;aspect=fixed;" vertex="1" parent="1">
          <mxGeometry x="790" y="602.5" width="20" height="20" as="geometry" />
        </mxCell>
        <mxCell id="7s9A2ZnNG_jbPzaEZ-DY-94" value="FECHA_FIN_ESTIMADA" style="text;html=1;align=left;verticalAlign=middle;resizable=0;points=[];autosize=1;strokeColor=none;fillColor=none;" vertex="1" parent="1">
          <mxGeometry x="810" y="597.5" width="150" height="30" as="geometry" />
        </mxCell>
        <mxCell id="7s9A2ZnNG_jbPzaEZ-DY-95" value="" style="ellipse;whiteSpace=wrap;html=1;aspect=fixed;" vertex="1" parent="1">
          <mxGeometry x="790" y="627.5" width="20" height="20" as="geometry" />
        </mxCell>
        <mxCell id="7s9A2ZnNG_jbPzaEZ-DY-96" value="COSTO_ESTIMADO" style="text;html=1;align=left;verticalAlign=middle;resizable=0;points=[];autosize=1;strokeColor=none;fillColor=none;" vertex="1" parent="1">
          <mxGeometry x="810" y="622.5" width="130" height="30" as="geometry" />
        </mxCell>
        <mxCell id="7s9A2ZnNG_jbPzaEZ-DY-99" style="edgeStyle=orthogonalEdgeStyle;shape=connector;curved=1;rounded=0;orthogonalLoop=1;jettySize=auto;html=1;entryX=0.934;entryY=0.001;entryDx=0;entryDy=0;entryPerimeter=0;strokeColor=default;align=center;verticalAlign=middle;fontFamily=Helvetica;fontSize=11;fontColor=default;labelBackgroundColor=default;endArrow=none;endFill=0;" edge="1" parent="1" source="7s9A2ZnNG_jbPzaEZ-DY-87" target="7s9A2ZnNG_jbPzaEZ-DY-86">
          <mxGeometry relative="1" as="geometry">
            <Array as="points">
              <mxPoint x="770" y="563" />
              <mxPoint x="770" y="570" />
            </Array>
          </mxGeometry>
        </mxCell>
        <mxCell id="7s9A2ZnNG_jbPzaEZ-DY-101" style="edgeStyle=orthogonalEdgeStyle;shape=connector;curved=1;rounded=0;orthogonalLoop=1;jettySize=auto;html=1;entryX=0.998;entryY=0.629;entryDx=0;entryDy=0;entryPerimeter=0;strokeColor=default;align=center;verticalAlign=middle;fontFamily=Helvetica;fontSize=11;fontColor=default;labelBackgroundColor=default;endArrow=none;endFill=0;" edge="1" parent="1" source="7s9A2ZnNG_jbPzaEZ-DY-93" target="7s9A2ZnNG_jbPzaEZ-DY-86">
          <mxGeometry relative="1" as="geometry" />
        </mxCell>
        <mxCell id="7s9A2ZnNG_jbPzaEZ-DY-102" style="edgeStyle=orthogonalEdgeStyle;shape=connector;curved=1;rounded=0;orthogonalLoop=1;jettySize=auto;html=1;entryX=0.98;entryY=0.966;entryDx=0;entryDy=0;entryPerimeter=0;strokeColor=default;align=center;verticalAlign=middle;fontFamily=Helvetica;fontSize=11;fontColor=default;labelBackgroundColor=default;endArrow=none;endFill=0;" edge="1" parent="1" source="7s9A2ZnNG_jbPzaEZ-DY-95" target="7s9A2ZnNG_jbPzaEZ-DY-86">
          <mxGeometry relative="1" as="geometry" />
        </mxCell>
        <mxCell id="7s9A2ZnNG_jbPzaEZ-DY-103" style="edgeStyle=orthogonalEdgeStyle;shape=connector;curved=1;rounded=0;orthogonalLoop=1;jettySize=auto;html=1;entryX=0;entryY=0.5;entryDx=0;entryDy=0;strokeColor=default;align=center;verticalAlign=middle;fontFamily=Helvetica;fontSize=11;fontColor=default;labelBackgroundColor=default;endArrow=none;endFill=0;" edge="1" parent="1" source="7s9A2ZnNG_jbPzaEZ-DY-104" target="7s9A2ZnNG_jbPzaEZ-DY-105">
          <mxGeometry relative="1" as="geometry">
            <Array as="points">
              <mxPoint x="955" y="720" />
            </Array>
          </mxGeometry>
        </mxCell>
        <mxCell id="7s9A2ZnNG_jbPzaEZ-DY-104" value="TIPO_PROYECTO" style="rounded=1;whiteSpace=wrap;html=1;" vertex="1" parent="1">
          <mxGeometry x="815" y="705" width="120" height="60" as="geometry" />
        </mxCell>
        <mxCell id="7s9A2ZnNG_jbPzaEZ-DY-105" value="" style="ellipse;whiteSpace=wrap;html=1;aspect=fixed;fillColor=#050505;" vertex="1" parent="1">
          <mxGeometry x="955" y="705" width="20" height="20" as="geometry" />
        </mxCell>
        <mxCell id="7s9A2ZnNG_jbPzaEZ-DY-106" value="" style="edgeStyle=orthogonalEdgeStyle;shape=connector;curved=1;rounded=0;orthogonalLoop=1;jettySize=auto;html=1;strokeColor=default;align=center;verticalAlign=middle;fontFamily=Helvetica;fontSize=11;fontColor=default;labelBackgroundColor=default;endArrow=none;endFill=0;" edge="1" parent="1" source="7s9A2ZnNG_jbPzaEZ-DY-107" target="7s9A2ZnNG_jbPzaEZ-DY-104">
          <mxGeometry relative="1" as="geometry" />
        </mxCell>
        <mxCell id="7s9A2ZnNG_jbPzaEZ-DY-110" value="" style="edgeStyle=orthogonalEdgeStyle;shape=connector;curved=1;rounded=0;orthogonalLoop=1;jettySize=auto;html=1;strokeColor=default;align=center;verticalAlign=middle;fontFamily=Helvetica;fontSize=11;fontColor=default;labelBackgroundColor=default;endArrow=none;endFill=0;" edge="1" parent="1" source="7s9A2ZnNG_jbPzaEZ-DY-107" target="7s9A2ZnNG_jbPzaEZ-DY-86">
          <mxGeometry relative="1" as="geometry" />
        </mxCell>
        <mxCell id="7s9A2ZnNG_jbPzaEZ-DY-107" value="ES_TIPO" style="rhombus;whiteSpace=wrap;html=1;fontFamily=Helvetica;fontSize=11;fontColor=default;labelBackgroundColor=default;" vertex="1" parent="1">
          <mxGeometry x="645" y="700" width="120" height="70" as="geometry" />
        </mxCell>
        <mxCell id="7s9A2ZnNG_jbPzaEZ-DY-108" value="(0,N)" style="text;html=1;align=center;verticalAlign=middle;resizable=0;points=[];autosize=1;strokeColor=none;fillColor=none;fontFamily=Helvetica;fontSize=11;fontColor=default;labelBackgroundColor=default;" vertex="1" parent="1">
          <mxGeometry x="765" y="705" width="50" height="30" as="geometry" />
        </mxCell>
        <mxCell id="7s9A2ZnNG_jbPzaEZ-DY-109" value="NOMBRE_TIPO" style="text;html=1;align=left;verticalAlign=middle;resizable=0;points=[];autosize=1;strokeColor=none;fillColor=none;" vertex="1" parent="1">
          <mxGeometry x="975" y="700" width="110" height="30" as="geometry" />
        </mxCell>
        <mxCell id="7s9A2ZnNG_jbPzaEZ-DY-111" value="(1,1)" style="text;html=1;align=center;verticalAlign=middle;resizable=0;points=[];autosize=1;strokeColor=none;fillColor=none;fontFamily=Helvetica;fontSize=11;fontColor=default;labelBackgroundColor=default;" vertex="1" parent="1">
          <mxGeometry x="695" y="652.5" width="50" height="30" as="geometry" />
        </mxCell>
        <mxCell id="7s9A2ZnNG_jbPzaEZ-DY-113" value="" style="edgeStyle=orthogonalEdgeStyle;shape=connector;curved=1;rounded=0;orthogonalLoop=1;jettySize=auto;html=1;strokeColor=default;align=center;verticalAlign=middle;fontFamily=Helvetica;fontSize=11;fontColor=default;labelBackgroundColor=default;endArrow=none;endFill=0;" edge="1" parent="1" source="7s9A2ZnNG_jbPzaEZ-DY-112" target="7s9A2ZnNG_jbPzaEZ-DY-86">
          <mxGeometry relative="1" as="geometry" />
        </mxCell>
        <mxCell id="7s9A2ZnNG_jbPzaEZ-DY-114" value="" style="edgeStyle=orthogonalEdgeStyle;shape=connector;curved=1;rounded=0;orthogonalLoop=1;jettySize=auto;html=1;strokeColor=default;align=center;verticalAlign=middle;fontFamily=Helvetica;fontSize=11;fontColor=default;labelBackgroundColor=default;endArrow=none;endFill=0;" edge="1" parent="1" source="7s9A2ZnNG_jbPzaEZ-DY-112" target="7s9A2ZnNG_jbPzaEZ-DY-1">
          <mxGeometry relative="1" as="geometry" />
        </mxCell>
        <mxCell id="7s9A2ZnNG_jbPzaEZ-DY-112" value="LIDERA" style="rhombus;whiteSpace=wrap;html=1;fontFamily=Helvetica;fontSize=11;fontColor=default;labelBackgroundColor=default;" vertex="1" parent="1">
          <mxGeometry x="475" y="565" width="120" height="70" as="geometry" />
        </mxCell>
        <mxCell id="7s9A2ZnNG_jbPzaEZ-DY-115" value="(0,N)" style="text;html=1;align=center;verticalAlign=middle;resizable=0;points=[];autosize=1;strokeColor=none;fillColor=none;fontFamily=Helvetica;fontSize=11;fontColor=default;labelBackgroundColor=default;" vertex="1" parent="1">
          <mxGeometry x="415" y="570" width="50" height="30" as="geometry" />
        </mxCell>
        <mxCell id="7s9A2ZnNG_jbPzaEZ-DY-116" value="(1,1)" style="text;html=1;align=center;verticalAlign=middle;resizable=0;points=[];autosize=1;strokeColor=none;fillColor=none;fontFamily=Helvetica;fontSize=11;fontColor=default;labelBackgroundColor=default;" vertex="1" parent="1">
          <mxGeometry x="595" y="570" width="50" height="30" as="geometry" />
        </mxCell>
        <mxCell id="7s9A2ZnNG_jbPzaEZ-DY-119" style="edgeStyle=orthogonalEdgeStyle;shape=connector;curved=1;rounded=0;orthogonalLoop=1;jettySize=auto;html=1;entryX=0.75;entryY=1;entryDx=0;entryDy=0;strokeColor=default;align=center;verticalAlign=middle;fontFamily=Helvetica;fontSize=11;fontColor=default;labelBackgroundColor=default;endArrow=none;endFill=0;" edge="1" parent="1" source="7s9A2ZnNG_jbPzaEZ-DY-117" target="7s9A2ZnNG_jbPzaEZ-DY-14">
          <mxGeometry relative="1" as="geometry" />
        </mxCell>
        <mxCell id="7s9A2ZnNG_jbPzaEZ-DY-137" style="edgeStyle=orthogonalEdgeStyle;shape=connector;curved=1;rounded=0;orthogonalLoop=1;jettySize=auto;html=1;entryX=0;entryY=0.5;entryDx=0;entryDy=0;strokeColor=default;align=center;verticalAlign=middle;fontFamily=Helvetica;fontSize=11;fontColor=default;labelBackgroundColor=default;endArrow=none;endFill=0;" edge="1" parent="1" source="7s9A2ZnNG_jbPzaEZ-DY-117" target="7s9A2ZnNG_jbPzaEZ-DY-136">
          <mxGeometry relative="1" as="geometry">
            <Array as="points">
              <mxPoint x="545" y="410" />
              <mxPoint x="670" y="410" />
              <mxPoint x="670" y="400" />
            </Array>
          </mxGeometry>
        </mxCell>
        <mxCell id="7s9A2ZnNG_jbPzaEZ-DY-117" value="TIENE_PROYECTO" style="rhombus;whiteSpace=wrap;html=1;fontFamily=Helvetica;fontSize=11;fontColor=default;labelBackgroundColor=default;" vertex="1" parent="1">
          <mxGeometry x="485" y="315" width="120" height="70" as="geometry" />
        </mxCell>
        <mxCell id="7s9A2ZnNG_jbPzaEZ-DY-120" value="(0,N)" style="text;html=1;align=center;verticalAlign=middle;resizable=0;points=[];autosize=1;strokeColor=none;fillColor=none;fontFamily=Helvetica;fontSize=11;fontColor=default;labelBackgroundColor=default;" vertex="1" parent="1">
          <mxGeometry x="475" y="295" width="50" height="30" as="geometry" />
        </mxCell>
        <mxCell id="7s9A2ZnNG_jbPzaEZ-DY-121" value="(0,N)" style="text;html=1;align=center;verticalAlign=middle;resizable=0;points=[];autosize=1;strokeColor=none;fillColor=none;fontFamily=Helvetica;fontSize=11;fontColor=default;labelBackgroundColor=default;" vertex="1" parent="1">
          <mxGeometry x="575" y="375" width="50" height="30" as="geometry" />
        </mxCell>
        <mxCell id="7s9A2ZnNG_jbPzaEZ-DY-122" value="" style="ellipse;whiteSpace=wrap;html=1;aspect=fixed;" vertex="1" parent="1">
          <mxGeometry x="785" y="360" width="20" height="20" as="geometry" />
        </mxCell>
        <mxCell id="7s9A2ZnNG_jbPzaEZ-DY-123" value="FECHA_COMIENZO" style="text;html=1;align=left;verticalAlign=middle;resizable=0;points=[];autosize=1;strokeColor=none;fillColor=none;" vertex="1" parent="1">
          <mxGeometry x="805" y="355" width="130" height="30" as="geometry" />
        </mxCell>
        <mxCell id="7s9A2ZnNG_jbPzaEZ-DY-133" value="" style="ellipse;whiteSpace=wrap;html=1;aspect=fixed;fillColor=#FFFFFF;" vertex="1" parent="1">
          <mxGeometry x="955" y="735" width="20" height="20" as="geometry" />
        </mxCell>
        <mxCell id="7s9A2ZnNG_jbPzaEZ-DY-134" value="DESCRIPCION" style="text;html=1;align=left;verticalAlign=middle;resizable=0;points=[];autosize=1;strokeColor=none;fillColor=none;" vertex="1" parent="1">
          <mxGeometry x="975" y="730" width="110" height="30" as="geometry" />
        </mxCell>
        <mxCell id="7s9A2ZnNG_jbPzaEZ-DY-135" style="edgeStyle=orthogonalEdgeStyle;shape=connector;curved=1;rounded=0;orthogonalLoop=1;jettySize=auto;html=1;entryX=0.985;entryY=0.683;entryDx=0;entryDy=0;entryPerimeter=0;strokeColor=default;align=center;verticalAlign=middle;fontFamily=Helvetica;fontSize=11;fontColor=default;labelBackgroundColor=default;endArrow=none;endFill=0;" edge="1" parent="1" source="7s9A2ZnNG_jbPzaEZ-DY-133" target="7s9A2ZnNG_jbPzaEZ-DY-104">
          <mxGeometry relative="1" as="geometry" />
        </mxCell>
        <mxCell id="7s9A2ZnNG_jbPzaEZ-DY-145" style="edgeStyle=orthogonalEdgeStyle;shape=connector;curved=1;rounded=0;orthogonalLoop=1;jettySize=auto;html=1;entryX=0;entryY=0.5;entryDx=0;entryDy=0;strokeColor=default;align=center;verticalAlign=middle;fontFamily=Helvetica;fontSize=11;fontColor=default;labelBackgroundColor=default;endArrow=none;endFill=0;" edge="1" parent="1" source="7s9A2ZnNG_jbPzaEZ-DY-136" target="7s9A2ZnNG_jbPzaEZ-DY-142">
          <mxGeometry relative="1" as="geometry">
            <Array as="points">
              <mxPoint x="745" y="465" />
              <mxPoint x="775" y="465" />
              <mxPoint x="775" y="480" />
            </Array>
          </mxGeometry>
        </mxCell>
        <mxCell id="7s9A2ZnNG_jbPzaEZ-DY-161" style="edgeStyle=orthogonalEdgeStyle;shape=connector;curved=1;rounded=0;orthogonalLoop=1;jettySize=auto;html=1;entryX=0.5;entryY=0;entryDx=0;entryDy=0;strokeColor=default;align=center;verticalAlign=middle;fontFamily=Helvetica;fontSize=11;fontColor=default;labelBackgroundColor=default;endArrow=none;endFill=0;" edge="1" parent="1" source="7s9A2ZnNG_jbPzaEZ-DY-136" target="7s9A2ZnNG_jbPzaEZ-DY-160">
          <mxGeometry relative="1" as="geometry" />
        </mxCell>
        <mxCell id="7s9A2ZnNG_jbPzaEZ-DY-136" value="ASIGNACION" style="rounded=1;whiteSpace=wrap;html=1;" vertex="1" parent="1">
          <mxGeometry x="645" y="385" width="120" height="60" as="geometry" />
        </mxCell>
        <mxCell id="7s9A2ZnNG_jbPzaEZ-DY-147" style="edgeStyle=orthogonalEdgeStyle;shape=connector;curved=1;rounded=0;orthogonalLoop=1;jettySize=auto;html=1;entryX=1;entryY=0.25;entryDx=0;entryDy=0;strokeColor=default;align=center;verticalAlign=middle;fontFamily=Helvetica;fontSize=11;fontColor=default;labelBackgroundColor=default;endArrow=none;endFill=0;" edge="1" parent="1" source="7s9A2ZnNG_jbPzaEZ-DY-138" target="7s9A2ZnNG_jbPzaEZ-DY-136">
          <mxGeometry relative="1" as="geometry" />
        </mxCell>
        <mxCell id="7s9A2ZnNG_jbPzaEZ-DY-138" value="" style="ellipse;whiteSpace=wrap;html=1;aspect=fixed;" vertex="1" parent="1">
          <mxGeometry x="785" y="390" width="20" height="20" as="geometry" />
        </mxCell>
        <mxCell id="7s9A2ZnNG_jbPzaEZ-DY-139" value="(0,1)FECHA_FIN" style="text;html=1;align=left;verticalAlign=middle;resizable=0;points=[];autosize=1;strokeColor=none;fillColor=none;" vertex="1" parent="1">
          <mxGeometry x="805" y="385" width="110" height="30" as="geometry" />
        </mxCell>
        <mxCell id="7s9A2ZnNG_jbPzaEZ-DY-146" style="edgeStyle=orthogonalEdgeStyle;shape=connector;curved=1;rounded=0;orthogonalLoop=1;jettySize=auto;html=1;strokeColor=default;align=center;verticalAlign=middle;fontFamily=Helvetica;fontSize=11;fontColor=default;labelBackgroundColor=default;endArrow=none;endFill=0;" edge="1" parent="1" source="7s9A2ZnNG_jbPzaEZ-DY-140" target="7s9A2ZnNG_jbPzaEZ-DY-136">
          <mxGeometry relative="1" as="geometry" />
        </mxCell>
        <mxCell id="7s9A2ZnNG_jbPzaEZ-DY-140" value="" style="ellipse;whiteSpace=wrap;html=1;aspect=fixed;" vertex="1" parent="1">
          <mxGeometry x="785" y="420" width="20" height="20" as="geometry" />
        </mxCell>
        <mxCell id="7s9A2ZnNG_jbPzaEZ-DY-141" value="CANTIDAD HORAS" style="text;html=1;align=left;verticalAlign=middle;resizable=0;points=[];autosize=1;strokeColor=none;fillColor=none;" vertex="1" parent="1">
          <mxGeometry x="805" y="415" width="130" height="30" as="geometry" />
        </mxCell>
        <mxCell id="7s9A2ZnNG_jbPzaEZ-DY-144" value="" style="edgeStyle=orthogonalEdgeStyle;shape=connector;curved=1;rounded=0;orthogonalLoop=1;jettySize=auto;html=1;strokeColor=default;align=center;verticalAlign=middle;fontFamily=Helvetica;fontSize=11;fontColor=default;labelBackgroundColor=default;endArrow=none;endFill=0;" edge="1" parent="1" source="7s9A2ZnNG_jbPzaEZ-DY-142" target="7s9A2ZnNG_jbPzaEZ-DY-143">
          <mxGeometry relative="1" as="geometry" />
        </mxCell>
        <mxCell id="7s9A2ZnNG_jbPzaEZ-DY-142" value="POSEE_CARGO" style="rhombus;whiteSpace=wrap;html=1;fontFamily=Helvetica;fontSize=11;fontColor=default;labelBackgroundColor=default;" vertex="1" parent="1">
          <mxGeometry x="795" y="445" width="120" height="70" as="geometry" />
        </mxCell>
        <mxCell id="7s9A2ZnNG_jbPzaEZ-DY-155" style="edgeStyle=orthogonalEdgeStyle;shape=connector;curved=1;rounded=0;orthogonalLoop=1;jettySize=auto;html=1;entryX=0;entryY=0.5;entryDx=0;entryDy=0;strokeColor=default;align=center;verticalAlign=middle;fontFamily=Helvetica;fontSize=11;fontColor=default;labelBackgroundColor=default;endArrow=none;endFill=0;" edge="1" parent="1" source="7s9A2ZnNG_jbPzaEZ-DY-143" target="7s9A2ZnNG_jbPzaEZ-DY-153">
          <mxGeometry relative="1" as="geometry">
            <Array as="points">
              <mxPoint x="1115" y="500" />
            </Array>
          </mxGeometry>
        </mxCell>
        <mxCell id="7s9A2ZnNG_jbPzaEZ-DY-156" style="edgeStyle=orthogonalEdgeStyle;shape=connector;curved=1;rounded=0;orthogonalLoop=1;jettySize=auto;html=1;entryX=0;entryY=0.5;entryDx=0;entryDy=0;strokeColor=default;align=center;verticalAlign=middle;fontFamily=Helvetica;fontSize=11;fontColor=default;labelBackgroundColor=default;endArrow=none;endFill=0;" edge="1" parent="1" source="7s9A2ZnNG_jbPzaEZ-DY-143" target="7s9A2ZnNG_jbPzaEZ-DY-151">
          <mxGeometry relative="1" as="geometry" />
        </mxCell>
        <mxCell id="7s9A2ZnNG_jbPzaEZ-DY-157" style="edgeStyle=orthogonalEdgeStyle;shape=connector;curved=1;rounded=0;orthogonalLoop=1;jettySize=auto;html=1;entryX=0;entryY=0.5;entryDx=0;entryDy=0;strokeColor=default;align=center;verticalAlign=middle;fontFamily=Helvetica;fontSize=11;fontColor=default;labelBackgroundColor=default;endArrow=none;endFill=0;" edge="1" parent="1" source="7s9A2ZnNG_jbPzaEZ-DY-143" target="7s9A2ZnNG_jbPzaEZ-DY-149">
          <mxGeometry relative="1" as="geometry">
            <Array as="points">
              <mxPoint x="1115" y="470" />
            </Array>
          </mxGeometry>
        </mxCell>
        <mxCell id="7s9A2ZnNG_jbPzaEZ-DY-143" value="CARGO" style="rounded=1;whiteSpace=wrap;html=1;" vertex="1" parent="1">
          <mxGeometry x="975" y="450" width="120" height="60" as="geometry" />
        </mxCell>
        <mxCell id="7s9A2ZnNG_jbPzaEZ-DY-148" style="edgeStyle=orthogonalEdgeStyle;shape=connector;curved=1;rounded=0;orthogonalLoop=1;jettySize=auto;html=1;entryX=0.925;entryY=0.028;entryDx=0;entryDy=0;entryPerimeter=0;strokeColor=default;align=center;verticalAlign=middle;fontFamily=Helvetica;fontSize=11;fontColor=default;labelBackgroundColor=default;endArrow=none;endFill=0;" edge="1" parent="1" source="7s9A2ZnNG_jbPzaEZ-DY-122" target="7s9A2ZnNG_jbPzaEZ-DY-136">
          <mxGeometry relative="1" as="geometry" />
        </mxCell>
        <mxCell id="7s9A2ZnNG_jbPzaEZ-DY-149" value="" style="ellipse;whiteSpace=wrap;html=1;aspect=fixed;fillColor=#000000;" vertex="1" parent="1">
          <mxGeometry x="1115" y="445" width="20" height="20" as="geometry" />
        </mxCell>
        <mxCell id="7s9A2ZnNG_jbPzaEZ-DY-150" value="CODIGO_CARGO" style="text;html=1;align=left;verticalAlign=middle;resizable=0;points=[];autosize=1;strokeColor=none;fillColor=none;" vertex="1" parent="1">
          <mxGeometry x="1135" y="440" width="120" height="30" as="geometry" />
        </mxCell>
        <mxCell id="7s9A2ZnNG_jbPzaEZ-DY-151" value="" style="ellipse;whiteSpace=wrap;html=1;aspect=fixed;" vertex="1" parent="1">
          <mxGeometry x="1115" y="470" width="20" height="20" as="geometry" />
        </mxCell>
        <mxCell id="7s9A2ZnNG_jbPzaEZ-DY-152" value="NOMBRE" style="text;html=1;align=left;verticalAlign=middle;resizable=0;points=[];autosize=1;strokeColor=none;fillColor=none;" vertex="1" parent="1">
          <mxGeometry x="1135" y="465" width="80" height="30" as="geometry" />
        </mxCell>
        <mxCell id="7s9A2ZnNG_jbPzaEZ-DY-153" value="" style="ellipse;whiteSpace=wrap;html=1;aspect=fixed;" vertex="1" parent="1">
          <mxGeometry x="1115" y="495" width="20" height="20" as="geometry" />
        </mxCell>
        <mxCell id="7s9A2ZnNG_jbPzaEZ-DY-154" value="DESCRIPCION" style="text;html=1;align=left;verticalAlign=middle;resizable=0;points=[];autosize=1;strokeColor=none;fillColor=none;" vertex="1" parent="1">
          <mxGeometry x="1135" y="490" width="110" height="30" as="geometry" />
        </mxCell>
        <mxCell id="7s9A2ZnNG_jbPzaEZ-DY-158" value="(1,1)" style="text;html=1;align=center;verticalAlign=middle;resizable=0;points=[];autosize=1;strokeColor=none;fillColor=none;fontFamily=Helvetica;fontSize=11;fontColor=default;labelBackgroundColor=default;" vertex="1" parent="1">
          <mxGeometry x="765" y="450" width="50" height="30" as="geometry" />
        </mxCell>
        <mxCell id="7s9A2ZnNG_jbPzaEZ-DY-159" value="(0,N)" style="text;html=1;align=center;verticalAlign=middle;resizable=0;points=[];autosize=1;strokeColor=none;fillColor=none;fontFamily=Helvetica;fontSize=11;fontColor=default;labelBackgroundColor=default;" vertex="1" parent="1">
          <mxGeometry x="915" y="450" width="50" height="30" as="geometry" />
        </mxCell>
        <mxCell id="7s9A2ZnNG_jbPzaEZ-DY-162" style="edgeStyle=orthogonalEdgeStyle;shape=connector;curved=1;rounded=0;orthogonalLoop=1;jettySize=auto;html=1;entryX=0.5;entryY=0;entryDx=0;entryDy=0;strokeColor=default;align=center;verticalAlign=middle;fontFamily=Helvetica;fontSize=11;fontColor=default;labelBackgroundColor=default;endArrow=none;endFill=0;" edge="1" parent="1" source="7s9A2ZnNG_jbPzaEZ-DY-160" target="7s9A2ZnNG_jbPzaEZ-DY-86">
          <mxGeometry relative="1" as="geometry" />
        </mxCell>
        <mxCell id="7s9A2ZnNG_jbPzaEZ-DY-160" value="ASIGNADO_A" style="rhombus;whiteSpace=wrap;html=1;fontFamily=Helvetica;fontSize=11;fontColor=default;labelBackgroundColor=default;" vertex="1" parent="1">
          <mxGeometry x="645" y="480" width="120" height="70" as="geometry" />
        </mxCell>
        <mxCell id="7s9A2ZnNG_jbPzaEZ-DY-163" value="(1,1)" style="text;html=1;align=center;verticalAlign=middle;resizable=0;points=[];autosize=1;strokeColor=none;fillColor=none;fontFamily=Helvetica;fontSize=11;fontColor=default;labelBackgroundColor=default;" vertex="1" parent="1">
          <mxGeometry x="655" y="440" width="50" height="30" as="geometry" />
        </mxCell>
        <mxCell id="7s9A2ZnNG_jbPzaEZ-DY-164" value="(0,N)" style="text;html=1;align=center;verticalAlign=middle;resizable=0;points=[];autosize=1;strokeColor=none;fillColor=none;fontFamily=Helvetica;fontSize=11;fontColor=default;labelBackgroundColor=default;" vertex="1" parent="1">
          <mxGeometry x="655" y="542.5" width="50" height="30" as="geometry" />
        </mxCell>
      </root>
    </mxGraphModel>
  </diagram>
</mxfile>
